<svg width="712" height="712" viewBox="0 0 712 712" fill="none" xmlns="http://www.w3.org/2000/svg">
<path d="M178.818 304.321C178.818 306.261 177.245 307.838 175.301 307.838C173.357 307.838 171.784 306.261 171.784 304.321C171.784 302.377 173.357 300.8 175.301 300.8C177.245 300.8 178.818 302.377 178.818 304.321Z" fill="white"/>
<path d="M590.488 513.207C569.984 539.431 544.834 562.511 515.853 581.102C499.491 591.622 481.914 600.704 463.273 608.119C449.755 613.499 435.683 618.006 421.112 621.554C415.963 622.802 410.81 623.917 405.667 624.896C404.422 625.137 403.192 625.365 401.958 625.592C348.152 635.209 294.95 630.308 247.021 613.562C246.912 613.531 246.807 613.503 246.695 613.457C231.065 607.983 215.994 601.243 201.654 593.335C201.626 593.338 201.591 593.31 201.556 593.272C135.031 556.61 84.1842 494.822 65.3344 417.303C28.4695 265.69 127.983 111.311 287.623 72.4978C447.248 33.6857 606.538 125.135 643.402 276.748C664.039 361.633 641.938 447.358 590.488 513.207Z" fill="#69D1E9"/>
<path d="M590.488 513.207C569.984 539.431 544.834 562.511 515.853 581.102C499.491 591.622 481.914 600.704 463.273 608.119C449.755 613.499 435.683 618.006 421.112 621.554C415.963 622.802 410.81 623.917 405.667 624.896C404.422 625.137 403.192 625.365 401.958 625.592C348.152 635.209 294.95 630.308 247.021 613.562C246.912 613.531 246.807 613.503 246.695 613.457C231.065 607.983 215.994 601.243 201.654 593.335C201.626 593.338 201.591 593.31 201.556 593.272C135.031 556.61 84.1842 494.822 65.3344 417.303C28.4695 265.69 127.983 111.311 287.623 72.4978C447.248 33.6857 606.538 125.135 643.402 276.748C664.039 361.633 641.938 447.358 590.488 513.207Z" fill="#69D1E9"/>
<path d="M170.512 566.58C133.881 539.109 105.375 503.73 86.932 462.936C103.228 477.629 121.243 490.428 140.597 501.094C140.632 501.132 140.66 501.157 140.688 501.157C140.691 501.157 140.695 501.157 140.695 501.157C148.63 505.534 156.79 509.551 165.145 513.197C165.058 513.386 164.974 513.574 164.887 513.767C164.855 513.833 164.82 513.907 164.789 513.977C163.859 516.078 163.086 518.242 162.513 520.36C162.254 521.28 162.016 522.216 161.835 523.132C160.688 528.527 160.517 534.277 161.321 540.228L161.391 540.721C161.527 541.727 161.709 542.727 161.905 543.703C162.132 544.884 162.411 546.108 162.723 547.328C162.964 548.293 163.243 549.272 163.537 550.258C163.663 550.691 163.803 551.121 163.95 551.565L164.058 551.897C164.219 552.38 164.376 552.859 164.495 553.173C164.677 553.719 164.876 554.278 165.054 554.732C165.222 555.18 165.387 555.624 165.519 555.949C165.946 557.057 166.418 558.172 166.914 559.284C167.148 559.822 167.383 560.34 167.634 560.875C167.872 561.378 168.106 561.885 168.358 562.389C168.617 562.944 168.889 563.49 169.176 564.039L169.442 564.549C169.624 564.906 169.805 565.266 169.973 565.577C170.151 565.909 170.33 566.245 170.512 566.58ZM592.743 500.856L577.025 446.788C580.458 442.911 583.223 438.394 585.838 433.895C590.544 425.794 594.98 417.46 597.756 408.51C600.084 400.998 601.168 395.799 599.486 389.363C598.899 387.108 596.413 377.599 588.205 374.495C586.376 373.803 584.587 373.551 582.915 373.551C579.584 373.551 576.742 374.561 575.116 375.142C574.483 375.369 573.871 375.614 573.284 375.883C574.183 374.366 575.053 372.834 575.903 371.289C578.339 366.762 580.437 362.067 582.388 357.326C589.865 338.21 593.774 317.997 595.211 297.762C596.48 277.496 595.379 257.118 591.599 237.128C590.883 233.416 590.086 229.71 589.184 226.025C588.034 212.244 585.807 198.4 582.443 184.574C580.563 176.837 578.357 169.261 575.85 161.85C605.283 194.016 627.08 233.388 637.949 278.076C656.572 354.68 640.085 435.255 592.743 500.856Z" fill="#4993C6"/>
<path d="M361.345 69.0442C337.496 69.0442 313.199 71.8675 288.902 77.775C132.437 115.817 34.5122 267.554 70.6101 416.023C88.0839 487.89 133.996 548.307 199.892 586.137C265.878 624.019 343.988 634.727 419.833 616.286C576.298 578.243 674.223 426.508 638.127 278.038C607.635 152.624 491.108 69.0442 361.345 69.0442ZM346.834 635.957C293.38 635.957 241.035 622.274 194.487 595.551C125.984 556.222 78.2456 493.375 60.0607 418.586C22.5494 264.302 124.057 106.682 286.34 67.2255C448.615 27.7758 611.163 121.189 648.674 275.475C686.186 429.759 584.681 587.378 422.399 626.833C397.291 632.937 371.942 635.957 346.834 635.957Z" fill="#6B174D"/>
<path d="M190.372 336.102C197.43 376.799 215.326 416.481 247.105 438.191L380.472 329.977C380.472 329.977 365.313 302.51 338.059 272.609C312.968 245.075 277.617 215.481 234.383 203.312C198.046 193.09 178.185 266.113 190.372 336.102Z" fill="#F79A28"/>
<path d="M309.154 252.22C290.916 238.817 270.307 227.266 247.632 220.012C249.216 218.519 250.803 217.054 252.39 215.618C273.705 224.697 292.772 237.915 309.154 252.22Z" fill="#FDE1BD"/>
<path d="M206.394 373.936C201.678 361.57 198.262 348.478 196.011 335.305C206.509 333.326 217.658 328.485 229.181 319.563C269.136 288.624 309.969 277.577 331.29 273.707C332.364 274.857 333.413 275.996 334.451 277.14C332.72 277.489 330.948 277.87 329.13 278.286C328.836 278.346 328.564 278.405 328.294 278.475C327.127 278.734 325.977 279.017 324.826 279.314C324.617 279.353 324.379 279.408 324.124 279.485C322.799 279.814 321.484 280.153 320.257 280.499C319.027 280.824 317.828 281.16 316.576 281.537C316.156 281.653 315.726 281.775 315.387 281.884C312.989 282.6 310.556 283.373 307.913 284.257C305.49 285.086 303.099 285.942 300.736 286.827C299.47 287.309 298.208 287.788 296.95 288.306C296.09 288.645 295.233 288.987 294.31 289.372C293.01 289.921 291.709 290.47 290.419 291.039L288.416 291.934C287.703 292.253 287.004 292.567 286.339 292.885C285.011 293.504 283.686 294.14 282.407 294.763C282.018 294.951 281.637 295.14 281.256 295.333L280.414 295.752C278.564 296.689 276.754 297.64 274.988 298.594C274.908 298.636 274.827 298.678 274.747 298.72C272.454 299.979 270.405 301.146 268.5 302.282C268.063 302.545 267.629 302.807 267.199 303.073L263.696 305.247L263.493 305.38C262.675 305.904 261.885 306.415 261.067 306.953C255.299 310.813 250.104 314.781 245.622 318.748C228.967 333.533 215.809 352.054 206.394 373.936Z" fill="#AC6B3F"/>
<path d="M247.104 443.806C246.014 443.806 244.909 443.488 243.941 442.827C213.889 422.295 192.833 384.357 184.646 336.001C177.734 295.154 181.429 251.28 194.06 224.221C204.199 202.511 219.056 193.174 235.9 197.907C327.305 223.627 383.059 323.048 385.387 327.268C386.887 329.981 385.901 333.393 383.188 334.893C380.472 336.396 377.056 335.407 375.56 332.694C375.011 331.701 319.687 233.146 232.858 208.717C218.864 204.784 209.565 217.558 204.233 228.972C182.709 275.077 187.212 390.468 250.275 433.556C252.838 435.304 253.495 438.799 251.744 441.358C250.656 442.949 248.898 443.806 247.104 443.806Z" fill="#000072"/>
<path d="M439.232 621.253L438.48 621.418L438.522 621.397C438.564 621.376 438.62 621.369 438.662 621.348C438.837 621.323 439.012 621.285 439.197 621.243L439.232 621.253Z" fill="#F9A528"/>
<path d="M590.488 513.207C569.984 539.431 544.834 562.511 515.852 581.102C499.491 591.622 481.914 600.704 463.273 608.119C449.754 613.499 435.683 618.006 421.112 621.554C415.963 622.802 410.809 623.917 405.667 624.896L341.174 628.12C341.153 628.12 341.125 628.12 341.1 628.12C341.072 628.12 341.048 628.12 341.027 628.123L340.964 628.116C340.904 628.109 340.848 628.116 340.817 628.123L340.761 628.13C340.1 628.099 339.443 628.057 338.782 628.011C338.363 627.98 337.929 627.962 337.492 627.934C337.241 627.938 336.999 627.91 336.748 627.899C336.433 627.885 336.132 627.864 335.814 627.833C335.695 627.819 335.563 627.822 335.44 627.808C335.007 627.794 334.559 627.766 334.108 627.738V627.724C333.584 627.703 333.059 627.672 332.535 627.623C332.294 627.613 332.039 627.588 331.783 627.578V627.564C331.56 627.564 331.318 627.536 331.077 627.525C330.93 627.515 330.78 627.504 330.612 627.483C330.535 627.462 330.448 627.462 330.375 627.469C330.06 627.455 329.742 627.424 329.413 627.406V627.392C329.036 627.371 328.662 627.333 328.27 627.308C327.85 627.277 327.431 627.246 326.997 627.214C326.183 627.148 325.358 627.081 324.533 627.015C323.704 626.948 322.865 626.882 322.023 626.805C321.24 626.732 320.471 626.658 319.673 626.588C319.614 626.581 319.541 626.578 319.478 626.571C319.041 626.525 318.621 626.49 318.184 626.448C315.174 626.172 312.087 625.847 308.93 625.487C308.028 625.386 307.123 625.288 306.214 625.172C305.309 625.057 304.386 624.945 303.463 624.83C302.543 624.718 301.62 624.589 300.697 624.477C299.774 624.351 298.834 624.225 297.897 624.099C296.974 623.973 296.034 623.847 295.093 623.708C294.156 623.564 293.199 623.428 292.262 623.288C291.304 623.148 290.363 622.994 289.409 622.858C288.465 622.701 287.511 622.55 286.553 622.397C284.637 622.075 282.721 621.743 280.788 621.411C279.827 621.229 278.869 621.061 277.907 620.879C276.201 620.561 274.492 620.226 272.796 619.89C272.565 619.834 272.338 619.789 272.107 619.747C271.146 619.551 270.167 619.341 269.202 619.145C268.237 618.932 267.273 618.722 266.311 618.513C263.417 617.88 260.515 617.188 257.638 616.46C256.683 616.219 255.729 615.978 254.775 615.719C252.17 615.034 249.576 614.314 247.021 613.562C246.912 613.531 246.807 613.503 246.695 613.457C245.598 613.146 244.514 612.818 243.441 612.472C242.511 612.181 241.581 611.891 240.661 611.584C239.728 611.279 238.812 610.975 237.893 610.668C236.977 610.36 236.068 610.038 235.166 609.713C234.243 609.392 233.351 609.07 232.446 608.731C231.554 608.406 230.663 608.067 229.768 607.728C228.887 607.371 228.009 607.028 227.129 606.672C226.248 606.315 225.384 605.959 224.517 605.585C220.339 603.819 216.291 601.9 212.432 599.837C211.869 599.544 211.309 599.232 210.764 598.935C210.393 598.732 210.023 598.53 209.652 598.313C208.897 597.879 208.152 597.446 207.411 597.009C206.702 596.586 205.988 596.149 205.289 595.722C205.195 595.663 205.097 595.614 205.013 595.537C204.398 595.16 203.796 594.782 203.209 594.387C202.996 594.251 202.786 594.114 202.587 593.964C202.262 593.772 201.951 593.558 201.653 593.335C201.626 593.338 201.591 593.31 201.556 593.272C201.311 593.111 201.084 592.964 200.853 592.789C200.689 592.677 200.524 592.566 200.36 592.44C199.815 592.052 199.273 591.664 198.745 591.276C198.168 590.863 197.605 590.433 197.056 590.003C196.857 589.853 196.644 589.702 196.459 589.535C196.277 589.395 196.095 589.258 195.924 589.101C193.763 587.402 191.739 585.612 189.851 583.745C189.729 583.626 189.592 583.497 189.474 583.364L189.456 583.35L189.435 583.322C189.386 583.287 189.334 583.235 189.302 583.207L189.299 583.193C189.232 583.13 189.18 583.078 189.127 583.011C189.009 582.906 188.904 582.801 188.802 582.696C188.46 582.357 188.131 582.015 187.813 581.658C187.747 581.592 187.677 581.525 187.621 581.445C187.519 581.34 187.414 581.235 187.31 581.116C186.617 580.379 185.946 579.606 185.306 578.83C185.041 578.512 184.758 578.18 184.488 577.844L184.471 577.816C184.062 577.32 183.681 576.823 183.3 576.309C183.265 576.257 183.23 576.215 183.191 576.163C183.153 576.107 183.118 576.054 183.079 575.998L183.048 575.974C182.943 575.855 182.849 575.719 182.772 575.593C182.391 575.082 182.041 574.565 181.674 574.051C181.265 573.45 180.856 572.852 180.478 572.251C180.143 571.761 179.825 571.268 179.521 570.775C178.451 569.136 177.475 567.517 176.591 565.94C176.011 564.934 175.458 563.941 174.941 562.955C174.661 562.444 174.416 561.941 174.154 561.441C173.896 560.941 173.651 560.455 173.42 559.952C173.175 559.466 172.945 558.976 172.714 558.487C172.487 557.998 172.273 557.522 172.057 557.033C171.588 555.98 171.151 554.956 170.763 553.939C170.606 553.558 170.466 553.177 170.323 552.792C170.141 552.327 169.977 551.862 169.823 551.404C169.658 550.953 169.508 550.499 169.358 550.041C169.204 549.572 169.054 549.118 168.917 548.66C168.645 547.747 168.389 546.846 168.166 545.954C167.879 544.835 167.624 543.724 167.421 542.654C167.201 541.567 167.03 540.521 166.886 539.473C166.128 533.869 166.365 528.827 167.327 524.3C167.494 523.461 167.697 522.66 167.918 521.874C168.47 519.895 169.138 518.025 169.921 516.252L169.935 516.235C170.242 515.539 170.564 514.844 170.903 514.172L170.917 514.155C171.27 513.484 171.627 512.826 172.001 512.183C172.375 511.536 172.766 510.921 173.158 510.302L173.168 510.285C173.773 509.358 174.396 508.47 175.039 507.638C176.336 505.918 177.717 504.366 179.115 502.943C179.479 502.566 179.846 502.206 180.216 501.856C181.122 500.993 182.024 500.171 182.915 499.426C183.303 499.105 183.677 498.787 184.055 498.5L184.065 498.482C184.457 498.178 184.831 497.874 185.209 497.601C185.614 497.294 186.006 497.004 186.383 496.727C186.68 496.511 186.981 496.304 187.282 496.102C188.026 495.584 188.75 495.098 189.449 494.665C189.858 494.399 190.271 494.151 190.666 493.903C191.12 493.634 191.564 493.382 191.977 493.148C192.239 492.994 192.501 492.854 192.735 492.718C194.518 491.732 195.889 491.102 196.605 490.781C196.605 490.781 191.816 458.95 198.692 420.1L198.703 420.068C200.486 409.961 203.045 399.365 206.705 388.734L206.702 388.72C214.718 365.423 227.915 341.972 249.352 322.947C253.53 319.245 258.508 315.42 264.189 311.62C265.007 311.078 265.829 310.55 266.675 310.005C267.524 309.474 268.388 308.928 269.251 308.393C269.95 307.97 270.65 307.537 271.366 307.11C273.331 305.939 275.359 304.789 277.449 303.642H277.463C279.246 302.67 281.078 301.709 282.955 300.758C283.581 300.451 284.207 300.129 284.85 299.818C286.119 299.199 287.416 298.58 288.717 297.972C289.371 297.661 290.028 297.364 290.702 297.063C291.36 296.766 292.031 296.469 292.706 296.168C293.968 295.612 295.261 295.063 296.551 294.518C297.397 294.165 298.257 293.826 299.117 293.487C300.299 293.001 301.515 292.539 302.729 292.078C305.022 291.218 307.361 290.379 309.731 289.568C312.119 288.771 314.538 287.994 316.996 287.26C317.408 287.131 317.838 287.012 318.254 286.897C319.394 286.551 320.526 286.233 321.687 285.928C323.019 285.554 324.369 285.208 325.721 284.876C325.805 284.834 325.907 284.82 325.994 284.81C327.2 284.499 328.41 284.201 329.633 283.929C329.836 283.873 330.035 283.831 330.256 283.785C332.979 283.166 335.751 282.583 338.566 282.065C340.013 281.796 341.467 281.555 342.936 281.31C343.691 281.181 344.446 281.062 345.232 280.94L345.715 280.877C348.449 280.461 351.21 280.118 354.007 279.81C354.144 279.807 354.273 279.789 354.406 279.772C355.416 279.667 356.444 279.569 357.468 279.475C359.496 279.307 361.527 279.15 363.558 279.024C364.813 278.957 366.068 278.891 367.337 278.839C368.225 278.807 369.113 278.776 370.001 278.758C370.98 278.73 371.959 278.716 372.952 278.702C375.238 278.688 377.542 278.706 379.867 278.762C380.853 278.79 381.852 278.818 382.852 278.863C388.261 279.08 393.763 279.538 399.311 280.244C399.539 280.272 399.762 280.3 399.989 280.328C400.294 280.377 400.612 280.408 400.912 280.457C401.426 280.52 401.93 280.601 402.444 280.681C403.492 280.835 404.538 280.992 405.601 281.16C407.712 281.496 409.827 281.88 411.953 282.303C412.715 282.453 413.463 282.604 414.215 282.772C415.393 283.027 416.571 283.282 417.766 283.551C418.948 283.824 420.13 284.11 421.329 284.408C421.388 284.415 421.469 284.432 421.542 284.453C422.266 284.638 422.989 284.82 423.699 285.009C424.423 285.205 425.146 285.39 425.86 285.593C427.307 285.988 428.765 286.418 430.205 286.862C430.901 287.065 431.6 287.281 432.299 287.498C437.34 289.075 442.416 290.896 447.493 292.959C447.493 292.959 447.604 293.004 447.821 293.078C447.951 293.134 448.122 293.2 448.342 293.287L448.388 293.298C448.499 293.357 448.625 293.399 448.765 293.455C449.111 293.602 449.538 293.78 450.024 293.983C450.31 294.105 450.607 294.231 450.94 294.378C452.422 295.011 454.32 295.867 456.582 296.972C457.043 297.192 457.522 297.441 458.015 297.685C458.97 298.164 459.991 298.678 461.064 299.248C461.417 299.437 461.784 299.626 462.151 299.814C462.28 299.884 462.406 299.94 462.536 300.014C463.064 300.3 463.595 300.597 464.14 300.894C465.007 301.36 465.906 301.859 466.822 302.373C467.031 302.496 467.241 302.615 467.451 302.737C468.017 303.076 468.594 303.398 469.192 303.747C469.853 304.135 470.517 304.534 471.213 304.946C471.342 305.016 471.454 305.09 471.587 305.177C472.765 305.88 473.985 306.649 475.233 307.432C475.705 307.726 476.159 308.019 476.631 308.327C477.282 308.743 477.949 309.173 478.603 309.606C478.75 309.704 478.911 309.802 479.061 309.9C480.169 310.641 481.284 311.396 482.414 312.18C482.498 312.242 482.578 312.291 482.662 312.354C484.036 313.298 485.434 314.295 486.85 315.322C488.269 316.364 489.706 317.43 491.164 318.542C491.765 319.011 492.377 319.479 492.989 319.944C495.303 321.769 497.656 323.681 500.044 325.719C501.54 327.002 503.054 328.313 504.561 329.684C506.085 331.054 507.595 332.452 509.13 333.91C509.899 334.637 510.654 335.382 511.423 336.123C512.762 337.459 514.118 338.805 515.468 340.214L515.482 340.224C516.073 340.843 516.66 341.462 517.251 342.094C517.824 342.703 518.397 343.307 518.957 343.93C519.481 344.496 520.02 345.08 520.544 345.66C521.243 346.429 521.946 347.223 522.631 348.023C523.334 348.821 524.04 349.646 524.729 350.457C525.952 351.911 527.179 353.397 528.413 354.935C528.504 355.057 528.609 355.176 528.7 355.299C529.2 355.928 529.7 356.561 530.189 357.207C530.801 357.987 531.416 358.795 532.032 359.602C532.644 360.41 533.262 361.235 533.867 362.074C534.119 362.409 534.374 362.748 534.615 363.102V363.116C535.087 363.748 535.549 364.402 536.007 365.052C536.321 365.5 536.636 365.947 536.947 366.395C537.206 366.762 537.461 367.129 537.709 367.51C537.765 367.59 537.818 367.66 537.873 367.741C538.115 368.094 538.356 368.447 538.58 368.803C539.233 369.786 539.852 370.74 540.44 371.656C540.684 372.041 540.946 372.436 541.177 372.82C545.6 379.697 549.777 387.063 553.588 395.016C554.846 397.61 556.052 400.271 557.22 402.98L569.868 442.274L590.488 513.207Z" fill="#F79A28"/>
<path d="M214.463 383.861C223.335 361.088 236.305 342.031 253.072 327.149C257.169 323.52 261.959 319.867 267.287 316.301C268.042 315.805 268.797 315.319 269.657 314.763L273.051 312.655C273.439 312.414 273.834 312.176 274.243 311.931C275.984 310.893 277.851 309.827 279.945 308.677C280.012 308.645 280.075 308.61 280.141 308.575C281.882 307.631 283.669 306.694 285.427 305.799L287.304 304.866C288.549 304.261 289.818 303.653 291.122 303.045C291.737 302.751 292.356 302.471 293.01 302.181L294.971 301.304C296.191 300.765 297.436 300.241 298.715 299.699C299.491 299.374 300.281 299.063 301.075 298.752L301.257 298.678C302.393 298.21 303.557 297.766 304.704 297.332C306.941 296.493 309.228 295.675 311.51 294.892C314.003 294.06 316.321 293.322 318.677 292.62C318.978 292.525 319.289 292.438 319.597 292.354C319.638 292.34 319.845 292.281 319.887 292.27C320.963 291.941 322.026 291.644 323.201 291.333C324.477 290.977 325.767 290.644 327.06 290.33C327.102 290.319 327.144 290.305 327.186 290.295C327.26 290.281 327.33 290.263 327.399 290.246C328.539 289.952 329.679 289.669 330.84 289.414C330.951 289.389 331.039 289.368 331.147 289.337L331.504 289.26C334.391 288.603 337.031 288.054 339.593 287.585C341.006 287.323 342.422 287.089 343.904 286.841C344.596 286.722 345.288 286.614 345.98 286.505L346.554 286.428C348.97 286.061 351.557 285.729 354.458 285.411C354.678 285.397 354.878 285.376 355 285.355C355.923 285.257 356.867 285.17 357.807 285.082L357.94 285.072C359.929 284.904 361.919 284.75 363.866 284.628C365.096 284.565 366.327 284.499 367.537 284.45C368.393 284.418 369.25 284.39 370.166 284.373C370.984 284.348 371.802 284.334 372.63 284.324L372.98 284.317C373.49 284.313 374.004 284.31 374.514 284.31C376.241 284.31 377.972 284.331 379.699 284.373L380.077 284.383C380.916 284.408 381.765 284.436 382.625 284.471C387.897 284.684 393.27 285.135 398.619 285.816L399.231 285.893C400.014 285.998 400.797 286.107 401.622 286.232C402.65 286.386 403.678 286.54 404.713 286.701C405.244 286.788 405.779 286.876 406.317 286.967C404.09 291.63 402.014 296.357 400.189 301.213C389.428 299.325 378.839 298.475 368.529 298.475C312.559 298.475 264.993 323.566 244.815 344.318C232.498 356.987 222.381 370.272 214.463 383.861Z" fill="#FBD6A8"/>
<path d="M490.821 572.8C489.989 575.659 488.825 578.564 487.304 581.504C482.55 590.709 474.443 600.082 463.273 608.119C449.754 613.499 435.683 618.006 421.112 621.554C415.962 622.802 410.809 623.917 405.667 624.896L341.174 628.12C341.153 628.12 341.125 628.12 341.1 628.12C341.072 628.12 341.048 628.12 341.027 628.123L340.964 628.116C340.904 628.109 340.848 628.116 340.817 628.123L340.761 628.13C340.1 628.099 339.443 628.057 338.782 628.011C338.363 627.98 337.929 627.962 337.492 627.934C337.241 627.938 336.999 627.91 336.748 627.899C336.433 627.885 336.132 627.864 335.814 627.833C335.695 627.819 335.562 627.822 335.44 627.808C335.007 627.794 334.559 627.766 334.108 627.738V627.724C333.584 627.703 333.059 627.672 332.535 627.623C332.294 627.613 332.039 627.588 331.783 627.578V627.564C331.56 627.564 331.318 627.536 331.077 627.525C330.93 627.515 330.78 627.504 330.612 627.483C330.535 627.462 330.448 627.462 330.375 627.469C330.06 627.455 329.742 627.424 329.413 627.406V627.392C329.036 627.371 328.661 627.333 328.27 627.308C327.85 627.277 327.431 627.246 326.997 627.214C326.183 627.148 325.358 627.081 324.533 627.015C323.704 626.948 322.865 626.882 322.023 626.805C321.24 626.732 320.47 626.658 319.673 626.588C319.614 626.581 319.541 626.578 319.478 626.571C319.041 626.525 318.621 626.49 318.184 626.448C315.174 626.172 312.087 625.847 308.93 625.487C308.028 625.386 307.123 625.288 306.214 625.172C305.309 625.057 304.386 624.945 303.463 624.83C302.543 624.718 301.62 624.589 300.697 624.477C299.774 624.351 298.834 624.225 297.897 624.099C296.974 623.973 296.034 623.847 295.093 623.708C294.156 623.564 293.199 623.428 292.262 623.288C291.304 623.148 290.363 622.994 289.409 622.858C288.465 622.701 287.511 622.55 286.553 622.397C284.637 622.075 282.721 621.743 280.788 621.411C279.826 621.229 278.869 621.061 277.907 620.879C276.201 620.561 274.492 620.226 272.796 619.89C272.565 619.834 272.338 619.789 272.107 619.747C271.146 619.551 270.167 619.341 269.202 619.145C268.237 618.932 267.273 618.722 266.311 618.513C263.416 617.88 260.515 617.188 257.638 616.46C256.683 616.219 255.729 615.978 254.774 615.719C252.17 615.034 249.576 614.314 247.02 613.562C246.912 613.531 246.807 613.503 246.695 613.457C245.598 613.146 244.514 612.818 243.441 612.472C242.511 612.181 241.581 611.891 240.661 611.584C239.728 611.279 238.812 610.975 237.893 610.668C236.977 610.36 236.068 610.038 235.166 609.713C234.243 609.392 233.351 609.07 232.446 608.731C231.554 608.406 230.663 608.067 229.768 607.728C228.887 607.371 228.009 607.028 227.128 606.672C226.247 606.315 225.384 605.959 224.517 605.585C220.339 603.819 216.291 601.9 212.431 599.837C211.869 599.544 211.309 599.232 210.764 598.935C210.393 598.732 210.023 598.53 209.652 598.313C208.897 597.879 208.152 597.446 207.411 597.009C206.702 596.586 205.988 596.149 205.289 595.722C205.195 595.663 205.097 595.614 205.013 595.537C204.398 595.16 203.796 594.782 203.209 594.387C202.996 594.251 202.786 594.114 202.587 593.964C202.262 593.772 201.951 593.558 201.653 593.335C201.625 593.338 201.591 593.31 201.556 593.272C201.311 593.111 201.084 592.964 200.853 592.789C200.689 592.677 200.524 592.566 200.36 592.44C199.815 592.052 199.273 591.664 198.745 591.276C198.168 590.863 197.605 590.433 197.056 590.003C196.857 589.853 196.644 589.702 196.458 589.535C196.277 589.395 196.095 589.258 195.924 589.101C193.763 587.402 191.739 585.612 189.851 583.745C189.729 583.626 189.592 583.497 189.474 583.364L189.456 583.35L189.435 583.322C179.961 572.394 174.497 562.42 171.77 553.488C166.974 537.808 170.672 525.303 176.168 516.298C182.856 505.348 192.211 499.594 192.211 499.594C192.211 499.594 204.908 489.673 235.32 498.094C265.748 506.527 273.202 476.664 274.548 442.813C274.548 442.813 273.999 431.192 275.617 415.062C277.886 392.541 284.399 361.214 302.648 340.511C333.926 304.981 354.689 312.379 349.403 322.916C345.795 330.18 331.077 346.587 320.782 378.41C316.097 392.95 312.318 410.699 310.958 432.248C306.602 501.01 323.54 533.141 382.139 532.572C440.721 531.995 477.593 511.323 491.22 555.673C492.786 560.763 492.629 566.626 490.821 572.8Z" fill="white"/>
<path d="M476.883 596.146C481.281 591.37 484.77 586.413 487.305 581.504C488.308 579.561 489.161 577.634 489.86 575.722C521.341 562.2 547.085 546.279 567.184 531.596C551.574 547.957 534.091 562.49 514.957 574.991C514.957 574.991 514.954 574.995 514.95 574.995C514.902 575.03 514.853 575.061 514.804 575.093C514.797 575.1 514.79 575.1 514.783 575.107C514.734 575.138 514.685 575.17 514.632 575.205C514.629 575.205 514.625 575.208 514.622 575.212C514.573 575.243 514.524 575.275 514.475 575.306C514.468 575.31 514.461 575.317 514.454 575.32C514.409 575.352 514.36 575.383 514.311 575.414C514.304 575.418 514.3 575.421 514.293 575.425C514.248 575.456 514.199 575.484 514.153 575.516C514.143 575.523 514.136 575.526 514.125 575.533C514.08 575.565 514.031 575.596 513.982 575.628C513.979 575.631 513.972 575.635 513.965 575.638C513.919 575.67 513.874 575.698 513.828 575.729C513.818 575.733 513.807 575.74 513.8 575.747C513.748 575.778 513.702 575.81 513.653 575.841C513.647 575.844 513.643 575.848 513.636 575.851C513.591 575.879 513.545 575.911 513.496 575.939C513.489 575.946 513.479 575.953 513.472 575.956C513.43 575.984 513.384 576.012 513.342 576.04C513.332 576.047 513.318 576.058 513.307 576.065C513.258 576.093 513.21 576.124 513.164 576.156C513.157 576.159 513.15 576.163 513.143 576.166C513.094 576.201 513.045 576.232 512.996 576.264C512.989 576.267 512.986 576.271 512.979 576.274C512.926 576.309 512.87 576.344 512.814 576.379C501.362 583.745 489.329 590.363 476.883 596.146Z" fill="#AC6B3F"/>
<path d="M342.415 622.505C342.201 622.505 342.013 622.505 341.845 622.505C341.684 622.501 341.544 622.501 341.425 622.501C341.331 622.501 341.247 622.501 341.174 622.505H341.146C341.076 622.501 340.999 622.498 340.929 622.498C340.918 622.498 340.904 622.498 340.894 622.498L340.275 622.466C339.87 622.442 339.461 622.421 339.048 622.404L336.23 622.236C336.122 622.225 336.007 622.218 335.881 622.211L335.835 622.208L334.545 622.124C334.035 622.085 333.528 622.05 333.011 622.019L332.308 621.974C331.927 621.939 331.546 621.914 331.165 621.89C330.979 621.869 330.794 621.858 330.609 621.855C330.301 621.823 330.011 621.799 329.77 621.792L329.364 621.76C329.106 621.739 328.843 621.718 328.704 621.711L317.401 620.729C315.702 620.561 313.982 620.393 312.227 620.194C309.581 619.907 306.889 619.593 304.144 619.257L298.103 618.46C297.383 618.362 296.656 618.264 295.922 618.152L287.479 616.859C286.014 616.614 284.55 616.363 283.078 616.107L278.939 615.359C277.288 615.052 275.638 614.73 274.002 614.405C273.733 614.342 273.467 614.289 273.23 614.247L267.535 613.034C264.381 612.328 261.592 611.667 259.019 611.021L258.83 610.972C257.963 610.752 257.096 610.531 256.208 610.294C253.687 609.626 251.177 608.934 248.594 608.172L248.552 608.158C233.341 602.83 218.528 596.215 204.524 588.503C204.429 588.444 204.342 588.388 204.251 588.321C204.174 588.262 204.097 588.206 204.017 588.15L203.765 587.975C203.716 587.937 203.667 587.902 203.615 587.863C203.097 587.496 202.58 587.126 202.014 586.71C201.503 586.346 201.007 585.969 200.461 585.539L200.213 585.36C200.101 585.263 199.958 585.144 199.843 585.053L199.724 584.969C199.619 584.871 199.507 584.777 199.395 584.686C197.43 583.144 195.55 581.487 193.791 579.746C193.788 579.739 193.655 579.613 193.613 579.571C193.504 579.452 193.393 579.337 193.277 579.228C193.109 579.043 192.924 578.858 192.756 578.711C192.505 578.463 192.26 578.211 192.026 577.946C191.952 577.862 191.865 577.767 191.777 577.68C191.638 577.523 191.501 577.372 191.4 577.267C190.788 576.617 190.197 575.939 189.627 575.247L188.932 574.408C188.89 574.352 188.844 574.296 188.799 574.24C188.463 573.834 188.156 573.425 187.841 573.006C187.796 572.943 187.75 572.883 187.701 572.82C187.659 572.764 187.617 572.709 187.579 572.66C187.54 572.604 187.498 572.551 187.456 572.495C187.401 572.411 187.341 572.327 187.278 572.244C187.058 571.946 186.845 571.646 186.635 571.345L186.31 570.887C185.943 570.345 185.572 569.803 185.23 569.262C185.195 569.202 185.156 569.143 185.114 569.083C184.831 568.667 184.558 568.248 184.223 567.706C184.118 567.549 184.016 567.391 183.915 567.234C220.993 602.267 281.309 607.979 323.33 607.983C336.136 607.983 347.239 607.451 355.472 607.056C379.091 605.927 430.359 601.277 489.843 575.729C489.85 575.726 489.853 575.726 489.86 575.722C489.161 577.634 488.308 579.561 487.305 581.504C484.77 586.413 481.281 591.37 476.883 596.145C471.72 598.544 466.49 600.798 461.197 602.903C447.839 608.22 433.904 612.66 419.794 616.097C414.767 617.317 409.659 618.418 404.59 619.383C403.461 619.607 402.339 619.813 401.22 620.016C372.613 622.344 348.641 622.505 342.478 622.505C342.457 622.505 342.436 622.505 342.415 622.505ZM192.27 578.295C192.162 578.138 191.984 577.921 191.805 577.715C191.928 577.844 192.096 578.04 192.27 578.295Z" fill="#B1B1D3"/>
<path d="M395.364 407.483C392.98 413.076 382.541 413.992 372.05 409.521C361.555 405.053 354.979 396.893 357.363 391.297C359.748 385.699 370.187 384.787 380.681 389.255C391.173 393.726 397.749 401.886 395.364 407.483Z" fill="white"/>
<path d="M263.819 385.367C265.465 391.223 257.903 398.477 246.926 401.568C235.949 404.662 225.713 402.424 224.063 396.568C222.412 390.716 229.974 383.462 240.952 380.368C251.929 377.274 262.168 379.512 263.819 385.367Z" fill="white"/>
<path d="M353.902 274.199H353.885H353.902ZM353.885 274.199H353.871H353.885ZM450.632 288.159H450.639H450.632ZM450.922 288.288L450.929 288.292L450.922 288.288ZM450.933 288.292L450.961 288.306L450.933 288.292ZM450.961 288.306L450.968 288.313L450.961 288.306ZM450.975 288.316H450.978H450.975ZM328.19 289.917L328.176 289.924L328.19 289.917ZM328.172 289.928L328.162 289.931L328.172 289.928ZM420.263 289.921C420.374 289.945 420.556 289.97 420.7 289.987C420.553 289.97 420.409 289.949 420.263 289.921ZM187.264 572.268L187.275 572.279L187.264 572.268ZM191.669 577.575L191.672 577.578L191.669 577.575ZM191.805 577.715C191.984 577.921 192.162 578.138 192.27 578.295C192.096 578.04 191.928 577.844 191.805 577.715ZM193.169 579.124L193.176 579.131L193.169 579.124ZM200.849 587.776L200.835 587.78L200.849 587.776ZM205.153 588.965C205.363 589.143 205.565 589.335 205.737 589.528C205.558 589.325 205.359 589.136 205.153 588.965ZM208.792 591.387L208.799 591.391L208.792 591.387ZM208.803 591.394L208.813 591.405L208.803 591.394ZM248.499 608.144L248.51 608.147L248.499 608.144ZM248.782 608.245L248.793 608.248L248.782 608.245ZM341.174 622.505C341.341 622.498 341.562 622.501 341.845 622.505C342.027 622.505 342.236 622.505 342.478 622.505C348.641 622.505 372.613 622.344 401.22 620.016C402.339 619.813 403.461 619.607 404.59 619.383C409.659 618.418 414.767 617.317 419.794 616.097C433.904 612.66 447.839 608.22 461.197 602.903C479.246 595.722 496.611 586.801 512.814 576.379C540.167 558.837 564.194 537.186 584.289 511.998L564.478 443.841L551.959 404.959C550.791 402.253 549.669 399.802 548.536 397.467C545.005 390.101 540.946 382.84 536.454 375.858C536.423 375.809 536.391 375.76 536.36 375.708C536.216 375.47 536.059 375.226 535.902 374.984L535.713 374.687C535.14 373.789 534.538 372.862 533.905 371.915C533.65 371.509 533.444 371.212 533.238 370.908L533.073 370.681C533.042 370.632 533.011 370.583 532.979 370.534C532.776 370.223 532.567 369.926 532.357 369.625L531.409 368.272C530.986 367.674 530.556 367.062 530.112 366.468C530.022 366.346 529.938 366.223 529.857 366.094C529.703 365.874 529.539 365.661 529.378 365.447C528.735 364.552 528.148 363.773 527.564 363.004C526.963 362.217 526.368 361.431 525.774 360.675C525.263 360.001 524.806 359.424 524.351 358.851C524.316 358.805 524.232 358.704 524.201 358.658C524.131 358.574 524.061 358.487 523.991 358.4C522.799 356.91 521.614 355.477 520.432 354.072C519.782 353.302 519.097 352.505 518.418 351.733C517.723 350.929 517.055 350.17 516.391 349.439C515.999 349.006 515.622 348.593 515.244 348.188L514.821 347.73C514.272 347.115 513.744 346.559 513.22 346.003C512.661 345.402 512.175 344.891 511.689 344.381L511.535 344.216C511.493 344.178 511.455 344.139 511.416 344.098C510.161 342.79 508.899 341.539 507.654 340.294L506.717 339.385C506.235 338.913 505.753 338.445 505.267 337.983C503.77 336.56 502.295 335.197 500.809 333.861C499.317 332.505 497.845 331.229 496.387 329.981C494.314 328.208 492.062 326.366 489.51 324.349C488.885 323.873 488.287 323.419 487.699 322.958C486.333 321.919 484.92 320.87 483.529 319.85C482.183 318.874 480.823 317.902 479.488 316.986C479.446 316.955 479.404 316.927 479.362 316.895C479.292 316.847 479.225 316.801 479.155 316.752C478.075 316.004 477.009 315.28 475.943 314.571L475.478 314.267C474.88 313.872 474.237 313.459 473.607 313.057C473.132 312.746 472.705 312.473 472.268 312.197L471.632 311.802C470.636 311.176 469.66 310.564 468.713 310.002C468.64 309.956 468.563 309.911 468.493 309.862L465.682 308.201C465.301 307.984 464.93 307.771 464.56 307.551L464.021 307.24C463.193 306.775 462.326 306.292 461.494 305.845L459.872 304.957C459.735 304.887 459.63 304.831 459.533 304.779C459.152 304.583 458.77 304.39 458.407 304.191C457.404 303.66 456.421 303.163 455.498 302.702L454.981 302.443C454.701 302.303 454.429 302.167 454.159 302.038C452.198 301.08 450.391 300.248 448.741 299.545L446.716 298.682C446.58 298.633 446.454 298.58 446.339 298.531C446.3 298.517 446.265 298.503 446.227 298.486L446.223 298.489L446.056 298.423C445.965 298.384 445.881 298.349 445.8 298.318C445.531 298.22 445.395 298.164 445.395 298.164C440.473 296.168 435.505 294.382 430.621 292.857C429.939 292.644 429.289 292.441 428.639 292.253C427.167 291.798 425.765 291.389 424.37 291.004C423.947 290.886 423.552 290.781 423.157 290.676L420.256 289.917C420.161 289.9 420.067 289.879 419.972 289.854C418.808 289.564 417.658 289.288 416.508 289.026C415.354 288.764 414.187 288.512 413.022 288.257C412.292 288.096 411.589 287.956 410.872 287.813C408.796 287.397 406.73 287.026 404.713 286.701C403.678 286.54 402.65 286.386 401.622 286.232C400.797 286.107 400.014 285.998 399.231 285.893L398.619 285.816C393.27 285.135 387.897 284.684 382.625 284.47C381.765 284.436 380.916 284.408 380.077 284.383L379.699 284.373C377.462 284.317 375.214 284.303 372.98 284.317L372.63 284.324C371.802 284.334 370.984 284.348 370.166 284.373C369.25 284.39 368.393 284.418 367.537 284.45C366.327 284.499 365.096 284.565 363.866 284.628C361.919 284.75 359.929 284.904 357.94 285.072L357.807 285.082C356.867 285.17 355.923 285.257 355 285.355C354.878 285.376 354.678 285.397 354.458 285.411C351.557 285.729 348.97 286.061 346.554 286.428L345.98 286.505C345.288 286.614 344.596 286.722 343.904 286.841C342.422 287.089 341.006 287.323 339.593 287.585C337.031 288.054 334.391 288.603 331.504 289.26L331.147 289.337C331.039 289.368 330.951 289.389 330.84 289.414C329.679 289.669 328.539 289.952 327.399 290.246C327.33 290.263 327.26 290.281 327.186 290.295C327.144 290.305 327.102 290.319 327.06 290.33C325.767 290.644 324.477 290.976 323.201 291.333C322.026 291.644 320.963 291.941 319.887 292.27C319.845 292.281 319.638 292.34 319.597 292.354C319.289 292.438 318.978 292.525 318.677 292.62C316.321 293.322 314.003 294.06 311.51 294.892C309.227 295.675 306.941 296.493 304.704 297.332C303.557 297.766 302.393 298.21 301.257 298.678L301.075 298.751C300.281 299.063 299.491 299.374 298.715 299.699C297.436 300.241 296.191 300.765 294.971 301.304L293.01 302.181C292.356 302.471 291.737 302.751 291.122 303.045C289.818 303.653 288.549 304.261 287.304 304.866L285.427 305.799C283.669 306.694 281.882 307.631 280.141 308.575C280.075 308.61 280.012 308.645 279.945 308.677C277.851 309.827 275.984 310.893 274.243 311.931C273.834 312.176 273.439 312.414 273.051 312.655L269.657 314.763C268.797 315.319 268.042 315.805 267.287 316.301C261.959 319.867 257.169 323.52 253.072 327.149C234.746 343.412 220.962 364.661 212.096 390.3C212.071 390.388 212.043 390.475 212.012 390.562C208.736 400.082 206.121 410.335 204.233 421.044C204.219 421.124 204.202 421.208 204.185 421.288C197.619 458.601 202.111 489.641 202.157 489.952C202.527 492.441 201.195 494.882 198.895 495.909C197.773 496.409 196.616 496.99 195.448 497.633L194.836 497.979C194.357 498.252 193.952 498.482 193.536 498.731L193.253 498.905C192.997 499.063 192.739 499.22 192.484 499.388C191.798 499.814 191.148 500.251 190.473 500.72C190.18 500.919 189.945 501.08 189.711 501.251C189.33 501.524 188.977 501.79 188.61 502.066C188.278 502.311 188.061 502.485 187.837 502.66L187.719 502.754C187.635 502.824 187.551 502.894 187.467 502.961C187.243 503.132 187.019 503.317 186.796 503.503L186.485 503.758C185.789 504.342 184.999 505.055 184.09 505.922C183.754 506.236 183.447 506.541 183.139 506.859C181.751 508.271 180.573 509.624 179.524 511.019C178.951 511.76 178.412 512.515 177.881 513.34L177.825 513.424C177.489 513.956 177.164 514.466 176.857 514.997C176.525 515.574 176.203 516.169 175.881 516.777L175.843 516.847C175.57 517.389 175.315 517.948 175.07 518.507C175.039 518.574 175.007 518.644 174.972 518.71C174.308 520.231 173.759 521.79 173.336 523.342C173.144 524.041 172.973 524.706 172.833 525.401C171.941 529.596 171.815 534.054 172.448 538.717L172.515 539.21C172.62 539.99 172.766 540.755 172.924 541.549C173.119 542.566 173.347 543.559 173.605 544.566C173.815 545.398 174.049 546.22 174.298 547.055C174.399 547.401 174.511 547.737 174.623 548.08L174.696 548.303C174.839 548.733 174.962 549.107 175.095 549.474C175.273 550.006 175.409 550.38 175.556 550.754C175.71 551.173 175.825 551.492 175.955 551.806C176.36 552.855 176.755 553.788 177.185 554.746C177.395 555.225 177.587 555.659 177.797 556.103C178.003 556.543 178.213 556.987 178.433 557.428C178.465 557.487 178.493 557.547 178.521 557.609C178.713 558.026 178.916 558.428 179.133 558.84L179.444 559.445C179.583 559.721 179.723 560.001 179.877 560.28C180.391 561.256 180.905 562.186 181.45 563.13C182.335 564.71 183.254 566.224 184.223 567.706C184.558 568.248 184.831 568.667 185.114 569.083C185.156 569.143 185.195 569.202 185.229 569.262C185.572 569.803 185.943 570.345 186.31 570.887L186.635 571.345C186.845 571.646 187.058 571.946 187.278 572.244C187.341 572.328 187.4 572.411 187.456 572.495C187.498 572.551 187.54 572.604 187.579 572.66C187.617 572.709 187.659 572.765 187.701 572.82C187.75 572.883 187.795 572.943 187.841 573.006C188.156 573.425 188.463 573.834 188.799 574.24C188.844 574.296 188.89 574.352 188.932 574.408L189.627 575.247C190.197 575.939 190.788 576.617 191.4 577.267C191.501 577.372 191.638 577.523 191.777 577.68C191.865 577.767 191.952 577.862 192.026 577.946C192.26 578.211 192.505 578.463 192.756 578.711C192.924 578.858 193.109 579.043 193.277 579.229C193.393 579.337 193.504 579.452 193.613 579.571C193.655 579.613 193.788 579.739 193.791 579.746C195.55 581.487 197.43 583.144 199.395 584.686C199.507 584.777 199.619 584.871 199.724 584.969L199.843 585.053C199.958 585.144 200.101 585.263 200.213 585.36L200.461 585.539C201.007 585.969 201.503 586.346 202.014 586.71C202.58 587.126 203.097 587.496 203.615 587.864C203.667 587.902 203.716 587.937 203.765 587.975L204.017 588.15C204.097 588.206 204.174 588.262 204.251 588.322C204.356 588.398 204.461 588.461 204.569 588.535L204.583 588.542C204.747 588.643 204.905 588.752 205.055 588.867C205.188 588.968 205.328 589.063 205.471 589.147C205.653 589.255 205.828 589.374 205.995 589.503L206.205 589.636C206.866 590.08 207.397 590.416 207.943 590.748C208.055 590.818 208.163 590.888 208.268 590.961L208.527 591.122C209.107 591.475 209.698 591.835 210.285 592.188C210.974 592.59 211.701 593.017 212.442 593.44C212.781 593.639 213.078 593.8 213.372 593.961L213.844 594.219C214.242 594.439 214.648 594.66 215.05 594.873C218.721 596.831 222.633 598.69 226.702 600.414C227.562 600.785 228.391 601.127 229.233 601.466L231.872 602.522C232.635 602.809 233.502 603.141 234.372 603.456C235.274 603.791 236.131 604.106 237.019 604.417C237.987 604.759 238.826 605.06 239.672 605.343C240.577 605.644 241.483 605.948 242.406 606.249C243.322 606.553 244.217 606.833 245.108 607.109C246.174 607.455 247.195 607.763 248.23 608.056C248.352 608.091 248.471 608.13 248.59 608.172C251.174 608.934 253.684 609.626 256.208 610.294C257.096 610.531 257.963 610.752 258.83 610.972L259.019 611.021C261.592 611.668 264.381 612.328 267.535 613.034L273.23 614.247C273.467 614.289 273.733 614.342 274.002 614.405C275.638 614.73 277.288 615.052 278.939 615.359L283.078 616.107C284.55 616.363 286.014 616.614 287.479 616.859L295.922 618.153C296.656 618.264 297.383 618.362 298.103 618.46L304.144 619.257C306.889 619.593 309.581 619.908 312.227 620.194C313.982 620.393 315.702 620.561 317.401 620.729L328.703 621.711C328.843 621.718 329.105 621.739 329.364 621.76L329.77 621.792C330.011 621.799 330.301 621.823 330.609 621.855C330.794 621.858 330.979 621.869 331.165 621.89C331.546 621.914 331.927 621.939 332.308 621.974L333.01 622.019C333.528 622.05 334.035 622.085 334.545 622.124L335.835 622.208L335.881 622.211C336.007 622.218 336.122 622.225 336.23 622.236L339.048 622.404C339.461 622.421 339.87 622.442 340.275 622.466L340.894 622.498C340.974 622.498 341.062 622.501 341.146 622.505H341.174ZM329.221 632.923L329.235 632.926L329.221 632.923ZM339.796 633.643H339.807H339.796ZM341.027 633.737C340.957 633.737 340.887 633.737 340.817 633.737C340.649 633.737 340.481 633.727 340.314 633.713L338.548 633.619C338.485 633.619 338.422 633.615 338.363 633.608L335.545 633.44C335.493 633.437 335.433 633.433 335.381 633.43C335.248 633.423 335.129 633.416 335.014 633.409L331.392 633.164C330.941 633.122 330.623 633.108 330.308 633.087C330.277 633.087 330.245 633.087 330.214 633.084C330.081 633.08 329.948 633.07 329.815 633.056C329.598 633.035 329.385 633.014 329.165 633.003L316.307 631.902C314.555 631.731 312.779 631.556 310.989 631.357C308.312 631.063 305.571 630.745 302.781 630.402L296.579 629.584C295.814 629.479 295.037 629.374 294.265 629.259L285.668 627.941C284.144 627.686 282.658 627.431 281.165 627.172L276.865 626.392C275.152 626.074 273.422 625.739 271.705 625.4C271.615 625.379 271.52 625.361 271.429 625.337C271.317 625.309 271.209 625.291 271.097 625.27L265.112 623.998C261.829 623.264 258.945 622.582 256.264 621.907L256.061 621.855C255.149 621.62 254.233 621.39 253.317 621.145C250.499 620.397 247.912 619.677 245.433 618.946C245.29 618.908 245.136 618.859 244.972 618.803C243.878 618.488 242.794 618.16 241.721 617.813C240.808 617.53 239.836 617.23 238.882 616.911C237.976 616.614 237.046 616.303 236.117 615.992C235.197 615.684 234.292 615.363 233.386 615.041C232.355 614.681 231.432 614.342 230.492 613.992C229.607 613.671 228.688 613.321 227.772 612.975L225.027 611.877C224.108 611.507 223.203 611.133 222.301 610.745C217.948 608.902 213.728 606.896 209.785 604.787C209.359 604.564 208.908 604.316 208.46 604.074L208.079 603.865C207.579 603.592 207.202 603.382 206.82 603.158C206.093 602.742 205.335 602.298 204.576 601.858C203.912 601.463 203.283 601.078 202.664 600.697L202.363 600.512C202.213 600.425 202.035 600.316 201.842 600.176C201.237 599.806 200.65 599.432 200.073 599.04C199.902 598.935 199.685 598.792 199.458 598.631C199.119 598.421 198.79 598.198 198.469 597.96C198.133 597.74 197.857 597.558 197.584 597.355C197.402 597.229 197.221 597.103 197.039 596.963C196.493 596.575 195.948 596.187 195.417 595.796C194.833 595.38 194.204 594.901 193.588 594.418C193.344 594.237 193.12 594.065 192.914 593.891C192.707 593.73 192.512 593.576 192.326 593.415C190.075 591.636 187.914 589.727 185.901 587.734C185.768 587.605 185.652 587.49 185.544 587.381C185.387 587.238 185.24 587.087 185.1 586.93C185.006 586.843 184.918 586.755 184.831 586.664C184.464 586.301 184.097 585.923 183.744 585.528C183.642 585.423 183.53 585.305 183.419 585.175C183.314 585.067 183.212 584.955 183.107 584.84C182.443 584.137 181.695 583.273 180.978 582.406L180.762 582.148C180.545 581.889 180.325 581.623 180.111 581.361C180.087 581.33 180.062 581.295 180.038 581.263C179.608 580.735 179.202 580.207 178.797 579.662L178.751 579.599L178.724 579.564C178.696 579.529 178.668 579.491 178.643 579.456C178.472 579.246 178.307 579.022 178.147 578.781C177.909 578.456 177.678 578.127 177.447 577.799L177.101 577.309C176.608 576.589 176.182 575.96 175.783 575.327C175.42 574.796 175.074 574.261 174.742 573.722C173.714 572.149 172.662 570.415 171.693 568.685C171.113 567.685 170.529 566.626 169.973 565.577C169.805 565.266 169.624 564.906 169.442 564.549L169.176 564.039C168.889 563.49 168.617 562.944 168.358 562.389C168.106 561.885 167.872 561.378 167.634 560.875C167.383 560.34 167.148 559.822 166.914 559.284C166.418 558.172 165.946 557.057 165.519 555.949C165.386 555.624 165.222 555.18 165.054 554.732C164.876 554.278 164.677 553.719 164.495 553.173C164.376 552.859 164.219 552.38 164.058 551.897L163.95 551.565C163.803 551.121 163.663 550.691 163.537 550.258C163.243 549.272 162.964 548.293 162.723 547.328C162.411 546.108 162.132 544.884 161.904 543.703C161.709 542.727 161.527 541.727 161.391 540.721L161.321 540.228C160.517 534.278 160.688 528.527 161.835 523.132C162.016 522.216 162.254 521.28 162.513 520.36C163.086 518.242 163.859 516.078 164.789 513.977C164.82 513.907 164.855 513.833 164.886 513.767C165.208 513.047 165.544 512.323 165.897 511.631C165.939 511.543 165.984 511.463 166.033 511.379C166.393 510.697 166.76 510.03 167.138 509.372C167.519 508.715 167.914 508.086 168.313 507.46C168.4 507.306 168.498 507.159 168.603 507.013C169.26 506.006 169.935 505.058 170.606 504.195C171.906 502.471 173.396 500.755 175.109 499.007C175.514 498.594 175.937 498.175 176.364 497.769C177.43 496.755 178.405 495.878 179.321 495.112L179.618 494.868C179.888 494.644 180.153 494.424 180.423 494.214C180.482 494.158 180.548 494.109 180.611 494.057L180.884 493.843C181.234 493.567 181.576 493.301 181.922 493.05C182.251 492.798 182.681 492.476 183.097 492.179C183.398 491.956 183.74 491.721 184.083 491.487C184.908 490.914 185.701 490.386 186.471 489.903C186.733 489.736 187.054 489.536 187.369 489.344L187.708 489.134C188.292 488.785 188.767 488.512 189.215 488.26L189.918 487.862C190.127 487.746 190.337 487.631 190.547 487.519C189.481 477.563 187.568 450.752 193.165 419.121L193.169 419.124C193.179 419.058 193.193 418.991 193.207 418.925C195.175 407.797 197.899 397.114 201.307 387.164C201.335 387.073 201.363 386.982 201.391 386.895C210.89 359.294 225.772 336.368 245.622 318.748C250.104 314.78 255.299 310.813 261.067 306.953C261.885 306.415 262.675 305.904 263.493 305.38L263.696 305.247L267.199 303.073C267.629 302.807 268.063 302.545 268.5 302.282C270.405 301.146 272.454 299.979 274.747 298.72C274.827 298.678 274.908 298.636 274.988 298.594C276.754 297.64 278.564 296.689 280.414 295.752L281.256 295.333C281.637 295.14 282.018 294.951 282.407 294.763C283.686 294.14 285.011 293.504 286.339 292.885C287.004 292.567 287.703 292.253 288.416 291.934L290.419 291.039C291.709 290.47 293.01 289.921 294.31 289.372C295.233 288.987 296.09 288.645 296.95 288.306C298.208 287.788 299.47 287.309 300.736 286.827C303.099 285.942 305.49 285.086 307.913 284.257C310.556 283.373 312.989 282.6 315.387 281.884C315.726 281.775 316.156 281.653 316.576 281.537C317.828 281.16 319.027 280.824 320.257 280.499C321.484 280.153 322.799 279.814 324.124 279.485C324.379 279.408 324.617 279.352 324.826 279.314C325.977 279.017 327.127 278.734 328.294 278.475C328.564 278.405 328.836 278.346 329.13 278.286C332.053 277.618 334.849 277.038 337.555 276.545C339.02 276.273 340.509 276.024 342.016 275.773C342.726 275.647 343.491 275.528 344.281 275.406C344.32 275.402 344.446 275.381 344.484 275.378L344.963 275.311C347.487 274.927 350.277 274.57 353.402 274.231C353.49 274.22 353.584 274.213 353.675 274.206C353.728 274.199 353.79 274.192 353.811 274.189C354.79 274.088 355.783 273.993 356.776 273.902L356.954 273.885C359.066 273.707 361.135 273.549 363.209 273.42C364.547 273.35 365.817 273.283 367.103 273.228C368.057 273.196 368.977 273.165 369.9 273.147C370.707 273.123 371.574 273.109 372.452 273.095L372.861 273.088C375.263 273.077 377.622 273.091 380.003 273.147L380.416 273.161C381.3 273.189 382.195 273.214 383.094 273.252C388.67 273.479 394.368 273.955 400.017 274.675L400.633 274.752C401.601 274.885 402.454 275 403.307 275.133C404.331 275.283 405.398 275.444 406.478 275.615C408.649 275.961 410.858 276.36 413.054 276.8C413.84 276.954 414.634 277.115 415.431 277.29C416.599 277.545 417.791 277.804 419 278.076C420.186 278.349 421.353 278.629 422.535 278.922C422.664 278.947 422.801 278.978 422.933 279.013L426.048 279.824C426.496 279.943 426.943 280.062 427.384 280.188C428.852 280.59 430.362 281.034 431.859 281.496C432.491 281.677 433.212 281.901 433.932 282.128C439.148 283.757 444.409 285.645 449.604 287.757C449.779 287.816 449.971 287.886 450.139 287.963L450.163 287.97C450.356 288.036 450.544 288.11 450.73 288.197C450.814 288.229 450.919 288.271 450.943 288.281L453.233 289.253C454.97 289.994 456.96 290.907 459.05 291.927C459.333 292.064 459.672 292.235 460.022 292.41L460.508 292.655C461.525 293.161 462.585 293.696 463.696 294.287C464.042 294.472 464.374 294.644 464.703 294.812C464.77 294.847 464.832 294.878 464.895 294.916C465.011 294.969 465.144 295.039 465.28 295.116L466.825 295.965C467.685 296.423 468.619 296.944 469.57 297.479L470.251 297.871C470.646 298.105 470.957 298.283 471.276 298.465L474.072 300.115C474.177 300.171 474.355 300.279 474.562 300.416C475.548 301.006 476.561 301.639 477.593 302.286L478.212 302.67C478.701 302.978 479.187 303.293 479.69 303.618C480.334 304.027 481.022 304.474 481.7 304.922L482.186 305.237C483.312 305.988 484.452 306.761 485.609 307.561C485.644 307.586 485.679 307.61 485.714 307.638C485.78 307.684 485.843 307.726 485.906 307.771C487.298 308.729 488.713 309.739 490.143 310.774C491.618 311.858 493.083 312.945 494.566 314.074C495.177 314.553 495.733 314.976 496.289 315.399L496.471 315.539C499.138 317.644 501.498 319.58 503.69 321.451C505.235 322.776 506.787 324.122 508.336 325.531C509.874 326.908 511.423 328.345 512.996 329.838C513.517 330.33 514.031 330.834 514.552 331.337L515.576 332.337C516.845 333.599 518.125 334.875 519.404 336.204C519.453 336.256 519.506 336.305 519.555 336.358L519.827 336.644C520.334 337.179 520.848 337.717 521.359 338.266C521.97 338.917 522.558 339.535 523.131 340.175L523.502 340.577C523.907 341.014 524.316 341.458 524.715 341.902C525.428 342.689 526.166 343.524 526.886 344.36C527.571 345.136 528.301 345.989 529.011 346.828C530.277 348.331 531.532 349.852 532.794 351.429C532.836 351.478 532.874 351.526 532.913 351.579C533.007 351.694 533.105 351.817 533.199 351.939C533.657 352.512 534.171 353.163 534.671 353.827C535.234 354.54 535.867 355.372 536.5 356.204C537.143 357.05 537.79 357.914 538.422 358.795C538.66 359.106 538.964 359.515 539.254 359.941L539.282 359.983C539.726 360.584 540.16 361.2 540.597 361.815L541.548 363.178C541.82 363.563 542.1 363.965 542.369 364.378L542.52 364.594C542.785 364.979 543.061 365.384 543.32 365.793C543.928 366.706 544.568 367.692 545.173 368.639L545.337 368.894C545.544 369.213 545.75 369.534 545.942 369.852C550.669 377.204 554.944 384.853 558.65 392.59C559.877 395.121 561.101 397.799 562.377 400.753C562.447 400.921 562.509 401.089 562.565 401.26L575.214 440.554L595.878 511.641C596.382 513.375 596.022 515.246 594.91 516.665C573.682 543.814 548.103 567.084 518.883 585.825C502.078 596.635 484.067 605.889 465.35 613.335C451.506 618.845 437.068 623.445 422.444 627.008C417.228 628.273 411.942 629.416 406.719 630.409C405.478 630.651 404.223 630.881 402.972 631.112C402.786 631.147 402.601 631.171 402.416 631.185C371.344 633.724 346.271 633.758 341.257 633.734C341.177 633.737 341.104 633.737 341.027 633.737Z" fill="#000072"/>
<path d="M399.72 311.449C399.72 311.449 443.969 204.557 530.77 169.279C586.079 146.796 623.619 335.795 544.32 404.109L399.72 311.449Z" fill="#F79A28"/>
<path d="M410.107 299.5C417.599 287.075 425.237 274.752 433.313 262.785C438.816 254.748 444.661 246.955 450.842 239.464C456.995 231.947 463.445 224.693 470.304 217.869C484.032 204.28 499.086 191.933 515.922 182.724C517.978 181.483 520.163 180.501 522.285 179.393C523.355 178.861 524.411 178.295 525.494 177.788L528.774 176.344L532.053 174.893L532.871 174.53L533.57 174.288L534.947 173.796C536.632 173.359 538.318 173.075 539.996 173.075C540.156 173.075 540.317 173.079 540.478 173.082C542.31 173.205 544.138 173.537 545.932 174.236C547.704 174.991 549.48 175.89 551.144 177.148C554.514 179.546 557.51 182.892 560.192 186.514C565.083 193.219 568.844 201.054 571.896 209.178C563.366 192.67 552.609 182.371 540.999 182.371C538.366 182.371 535.685 182.903 532.983 184.011C467.601 210.818 434.225 268.494 410.107 299.5Z" fill="#FBD6A8"/>
<path d="M397.126 310.376C399.986 300.555 404.055 291.407 408.551 282.398C413.068 273.413 418.28 264.795 423.825 256.402C429.373 248.004 435.292 239.838 441.584 231.944C447.923 224.085 454.719 216.579 461.899 209.433C469.077 202.284 476.729 195.579 484.815 189.405C492.891 183.217 501.428 177.585 510.423 172.715C512.619 171.411 514.964 170.363 517.237 169.195C518.387 168.632 519.52 168.038 520.68 167.499L524.204 165.965L527.728 164.433L528.609 164.049L529.665 163.675L531.794 162.948C534.731 162.165 537.818 161.707 540.943 161.836C544.054 162.014 547.12 162.668 549.963 163.738C552.756 164.867 555.409 166.265 557.724 167.971C562.443 171.317 566.128 175.467 569.355 179.756C575.735 188.419 580.101 197.925 583.635 207.57C587.156 217.236 589.677 227.144 591.599 237.128C595.378 257.118 596.48 277.496 595.211 297.762C593.774 317.997 589.865 338.21 582.387 357.326C580.437 362.067 578.339 366.762 575.902 371.289C573.42 375.799 570.76 380.211 567.739 384.388C564.719 388.566 561.398 392.52 557.828 396.226C554.189 399.869 550.319 403.267 546.155 406.238C544.886 407.14 543.128 406.847 542.222 405.581C541.422 404.459 541.562 402.956 542.478 401.994L542.488 401.984C555.853 388.01 565.408 371.275 571.977 353.33C578.643 335.4 582.111 316.238 583.289 296.99C584.558 277.727 583.45 258.251 580.031 239.285C578.269 229.818 575.944 220.456 572.739 211.485C569.547 202.543 565.544 193.852 560.192 186.514C557.51 182.892 554.514 179.546 551.144 177.148C549.48 175.89 547.704 174.991 545.932 174.236C544.138 173.537 542.31 173.205 540.478 173.082C538.643 173.023 536.797 173.317 534.947 173.796L533.57 174.289L532.871 174.53L532.053 174.893L528.773 176.344L525.494 177.788C524.411 178.295 523.355 178.861 522.285 179.393C520.163 180.501 517.978 181.483 515.922 182.724C499.086 191.933 484.032 204.28 470.304 217.869C463.445 224.693 456.995 231.947 450.842 239.464C444.661 246.956 438.816 254.748 433.313 262.785C422.423 278.923 412.327 295.71 402.314 312.526L402.262 312.61C401.465 313.949 399.731 314.389 398.392 313.592C397.263 312.921 396.777 311.582 397.126 310.376Z" fill="#000072"/>
<path d="M454.201 312.365C454.52 315.679 475.264 327.153 491.196 343.182C507.347 359.438 518.16 374.691 521.345 376.334C522.656 377.015 524.834 375.652 527.491 372.764C536.171 363.336 549.97 337.564 555.227 313.109C560.702 287.69 560.957 265.645 558.447 248.28C554.934 223.707 545.911 208.465 538.373 206.186C521.446 201.036 451.09 279.185 454.201 312.365Z" fill="#FF6B6B"/>
<path d="M522.089 376.505C521.82 376.505 521.568 376.449 521.345 376.334C518.16 374.691 507.347 359.438 491.195 343.182C475.264 327.153 454.519 315.679 454.201 312.365C454.135 311.641 454.103 310.897 454.103 310.134C454.124 276.937 517.499 205.941 536.608 205.941C537.248 205.941 537.838 206.021 538.373 206.186C545.911 208.465 554.934 223.707 558.447 248.28C552.315 239.652 546.945 233.597 537.877 233.597C536.853 233.597 535.783 233.674 534.657 233.832C519.712 235.954 491.122 287.928 507.249 322.255C516.398 341.727 524.002 358.903 527.491 372.764C525.288 375.159 523.414 376.505 522.089 376.505Z" fill="#B14B6E"/>
<path d="M459.718 310.54C461.249 311.97 464.969 314.686 468.308 317.123C475.859 322.639 486.196 330.194 495.17 339.217C504.015 348.114 511.252 356.683 516.538 362.937C518.656 365.447 520.971 368.185 522.558 369.908C529.05 363.773 544.124 338.036 549.742 311.924C563.156 249.619 544.313 213.845 536.744 211.552C535.294 211.262 528.333 213.387 514.153 226.315C487.633 250.497 459.305 291.025 459.718 310.54ZM522.089 382.12C520.621 382.12 519.478 381.693 518.775 381.329C516.422 380.12 514.16 377.522 507.962 370.184C502.799 364.073 495.73 355.708 487.207 347.135C478.858 338.738 468.93 331.488 461.683 326.191C452.443 319.441 448.989 316.916 448.611 312.882C446.073 285.753 485.057 235.289 513.007 212.464C528.889 199.494 536.021 199.599 540.003 200.805C557.699 206.172 574.144 251.941 560.723 314.287L555.234 313.106L560.723 314.287C554.326 344 535.867 376.474 525.802 381.235C524.418 381.889 523.166 382.12 522.089 382.12Z" fill="#000072"/>
<path d="M361.345 69.0442C337.496 69.0442 313.199 71.8675 288.902 77.775C132.437 115.817 34.5122 267.554 70.6101 416.023C88.0839 487.89 133.996 548.307 199.892 586.137C265.878 624.019 343.988 634.727 419.833 616.286C576.298 578.243 674.223 426.508 638.127 278.038C607.635 152.624 491.108 69.0442 361.345 69.0442ZM346.834 635.957C293.38 635.957 241.035 622.274 194.487 595.551C125.984 556.222 78.2456 493.375 60.0607 418.586C22.5494 264.302 124.057 106.682 286.34 67.2255C448.615 27.7758 611.163 121.189 648.674 275.475C686.186 429.759 584.681 587.378 422.399 626.833C397.291 632.937 371.942 635.957 346.834 635.957Z" fill="#6B174D"/>
<path d="M361.345 69.0442C337.496 69.0442 313.199 71.8675 288.902 77.775C132.437 115.817 34.5122 267.554 70.6101 416.023C88.0839 487.89 133.996 548.307 199.892 586.137C265.878 624.019 343.988 634.727 419.833 616.286C576.298 578.243 674.223 426.508 638.127 278.038C607.635 152.624 491.108 69.0442 361.345 69.0442ZM346.834 635.957C293.38 635.957 241.035 622.274 194.487 595.551C125.984 556.222 78.2456 493.375 60.0607 418.586C22.5494 264.302 124.057 106.682 286.34 67.2255C448.615 27.7758 611.163 121.189 648.674 275.475C686.186 429.759 584.681 587.378 422.399 626.833C397.291 632.937 371.942 635.957 346.834 635.957Z" fill="#6B174D"/>
<path d="M590.488 513.207H590.505H590.488ZM248.765 608.238L248.779 608.245L248.765 608.238ZM248.779 608.245L248.793 608.248L248.779 608.245ZM248.594 608.172C248.688 608.203 248.807 608.238 248.873 608.262C297.174 625.137 349.767 629.217 400.968 620.065C402.157 619.845 403.367 619.624 404.59 619.383C409.659 618.418 414.767 617.317 419.794 616.097C433.904 612.66 447.839 608.22 461.197 602.903C479.246 595.722 496.611 586.801 512.815 576.379C540.975 558.316 565.618 535.9 586.065 509.75C638.512 442.624 657.421 358.179 637.949 278.076C601.871 129.708 445.311 39.9319 288.951 77.9532C213.148 96.3836 148.711 141.731 107.507 205.644C66.3677 269.462 53.3275 344.16 70.7905 415.978C88.6831 489.561 136.087 550.778 204.265 588.356C204.342 588.398 204.419 588.44 204.492 588.486C218.508 596.208 233.33 602.826 248.552 608.158L248.594 608.172ZM347.267 636.059C312.482 636.059 277.956 630.301 245.311 618.911C245.126 618.855 244.947 618.796 244.766 618.729C228.936 613.178 213.519 606.287 198.941 598.25L198.944 598.243C198.881 598.212 198.818 598.173 198.755 598.138C127.833 559.022 78.5162 495.273 59.8789 418.631C41.6825 343.793 55.2453 265.991 98.0719 199.557C140.838 133.218 207.684 86.1555 286.298 67.0417C448.681 27.5674 611.32 121.039 648.86 275.423C669.15 358.882 649.485 446.812 594.91 516.665C573.683 543.814 548.103 567.084 518.884 585.825C502.078 596.635 484.067 605.889 465.35 613.335C451.506 618.845 437.068 623.445 422.444 627.008C417.228 628.273 411.942 629.416 406.719 630.409C405.478 630.651 404.223 630.881 402.972 631.112C384.496 634.416 365.845 636.059 347.267 636.059Z" fill="#000072"/>
<path d="M448.741 644.774C408.502 655.731 368.687 657.349 345.998 645.438C341.376 643.009 337.695 639.785 334.72 636.265C333.028 634.248 331.553 632.126 330.273 630.007C359.971 631.64 390.536 628.99 421.119 621.554C483.326 606.42 536.437 573.733 575.882 530.488C585.569 581.508 516.559 626.354 448.741 644.774Z" fill="white"/>
<path d="M120.39 371.499C109.144 371.499 103.305 357.221 106.294 328.397C112.891 264.83 144.683 195.586 228.628 141.297C278.813 108.845 329.001 97.9752 365.243 97.9752C401.325 97.9752 423.584 108.745 418.27 119.71C406.118 144.786 335.591 145.835 261.781 207.458C253.509 203.668 244.878 200.431 235.9 197.907C233.037 197.103 230.233 196.705 227.499 196.705C214.145 196.705 202.475 206.203 194.06 224.221C184.614 244.452 180.167 274.084 181.412 304.824C180.475 306.436 179.545 308.051 178.612 309.697C155.357 350.747 133.947 371.499 120.39 371.499Z" fill="#D1F0F9"/>
<path d="M192.725 286.449C192.861 282.565 193.095 278.751 193.417 275.028C199.958 241.163 214.442 217.163 234.309 217.163C236.687 217.163 239.141 217.509 241.672 218.219C243.671 218.785 245.661 219.383 247.632 220.012C229.02 237.541 210.432 259.23 192.725 286.449Z" fill="#FDE1BD"/>
<path d="M193.417 275.028C195.001 256.765 198.783 240.649 204.234 228.972C208.89 218.998 216.574 207.989 227.779 207.989C229.397 207.989 231.093 208.22 232.858 208.717C239.564 210.601 246.073 212.929 252.39 215.618C250.803 217.055 249.216 218.519 247.632 220.012C245.661 219.383 243.671 218.785 241.672 218.219C239.141 217.509 236.686 217.163 234.309 217.163C214.442 217.163 199.958 241.163 193.417 275.028Z" fill="#FDF6EB"/>
<path d="M181.412 304.824C180.167 274.084 184.614 244.452 194.06 224.221C202.475 206.203 214.145 196.705 227.499 196.705C230.233 196.705 233.037 197.103 235.9 197.907C244.878 200.431 253.509 203.669 261.78 207.458C258.655 210.07 255.526 212.783 252.39 215.618C246.073 212.929 239.564 210.601 232.858 208.717C231.093 208.22 229.397 207.989 227.779 207.989C216.574 207.989 208.89 218.998 204.234 228.972C198.783 240.649 195.001 256.765 193.417 275.028C193.095 278.751 192.861 282.565 192.725 286.449C188.918 292.305 185.132 298.444 181.412 304.824Z" fill="#B1B1D3"/>
<path d="M264.343 553.205C264.343 553.205 268.689 564.136 276.163 571.723V571.733C280.9 576.523 286.86 579.97 293.775 578.484C303.064 576.491 308.025 567.538 310.657 558.802C313.507 549.373 313.653 540.175 313.653 540.175L264.343 553.205Z" fill="#000072"/>
<path d="M276.163 571.723V571.733C280.9 576.526 286.86 579.97 293.775 578.484C303.064 576.491 308.025 567.538 310.657 558.802C308.406 558.155 305.952 558.036 303.498 558.564C300.453 559.218 297.813 560.766 295.828 562.888C293.146 561.77 290.101 561.438 287.056 562.095C281.816 563.217 277.813 566.993 276.163 571.723Z" fill="#FF67A0"/>
<path d="M270.111 555.886C273.831 563.07 282.407 576.757 292.915 574.502C303.886 572.149 308.025 555.928 309.203 545.562L270.111 555.886ZM290.475 582.91C271.992 582.91 261.043 555.935 260.553 554.704C260.127 553.624 260.179 552.408 260.704 551.369C261.228 550.327 262.172 549.562 263.298 549.265L312.622 536.239C313.853 535.914 315.167 536.186 316.17 536.973C317.174 537.76 317.751 538.969 317.73 540.245C317.705 541.769 316.852 577.69 294.625 582.462C293.202 582.77 291.818 582.91 290.475 582.91Z" fill="#000072"/>
<path d="M316.758 535.326C321.393 547.37 312.601 555.61 301.057 556.131C289.556 556.648 283.469 545.989 282.281 542.234C282.281 542.234 284.203 564.133 268.101 560.197C261.148 558.497 254.953 551.079 257.281 541.787C257.281 541.787 245.647 522.5 277.865 516.791C310.084 511.082 316.758 535.326 316.758 535.326Z" fill="white"/>
<path d="M282.351 544.234C282.347 543.472 282.323 542.885 282.302 542.549C282.323 542.885 282.351 543.472 282.351 544.234ZM283.015 544.059C282.683 543.357 282.438 542.734 282.281 542.234C282.438 542.734 282.683 543.357 283.018 544.059H283.015Z" fill="#D1B8CA"/>
<path d="M275.055 560.127C278.306 558.966 280.127 556.089 281.138 552.977L281.141 552.974C280.131 556.089 278.306 558.966 275.055 560.127ZM300.257 556.152C295.104 556.155 291.087 553.897 288.151 551.125C291.084 553.897 295.101 556.148 300.25 556.148C300.516 556.148 300.785 556.141 301.058 556.131C303.34 556.026 305.515 555.624 307.501 554.946C307.501 554.949 307.501 554.949 307.501 554.953C305.515 555.627 303.34 556.033 301.058 556.134C300.788 556.148 300.519 556.152 300.257 556.152Z" fill="#1F0767"/>
<path d="M307.501 554.953C307.501 554.949 307.501 554.949 307.501 554.946C310.297 553.995 312.717 552.502 314.528 550.555C312.717 552.502 310.297 553.998 307.501 554.953ZM281.138 552.977C282.176 549.782 282.358 546.338 282.351 544.234C282.358 546.338 282.176 549.782 281.141 552.974L281.138 552.977ZM288.151 551.125C285.682 548.789 283.98 546.09 283.015 544.059H283.019C283.98 546.09 285.682 548.789 288.151 551.125ZM314.545 550.537C314.549 550.534 314.552 550.53 314.556 550.523C314.552 550.53 314.549 550.534 314.545 550.537Z" fill="#1F0767"/>
<path d="M271.73 560.668C270.636 560.668 269.43 560.522 268.098 560.197C262.497 558.83 257.39 553.736 256.841 546.95C258.333 547.793 259.91 548.429 261.525 548.828C263.207 549.24 264.738 549.429 266.126 549.429C274.604 549.429 277.816 542.388 278.984 536.032C280.896 535.823 282.795 535.417 284.641 534.805C288.448 539.361 294.314 543.685 302.351 543.685C302.687 543.685 303.026 543.678 303.368 543.661C308.916 543.412 313.972 541.752 317.779 538.959C318.597 543.643 317.265 547.594 314.555 550.523C314.552 550.53 314.548 550.534 314.545 550.537C314.538 550.544 314.534 550.548 314.527 550.555C312.717 552.502 310.297 553.995 307.501 554.946C305.515 555.624 303.34 556.026 301.058 556.131C300.785 556.141 300.516 556.148 300.25 556.148C295.1 556.148 291.084 553.897 288.15 551.125C285.682 548.789 283.98 546.09 283.018 544.059C282.683 543.357 282.438 542.734 282.281 542.234C282.281 542.234 282.288 542.343 282.302 542.549C282.323 542.885 282.347 543.472 282.351 544.234C282.358 546.339 282.176 549.782 281.138 552.977C280.127 556.089 278.306 558.966 275.055 560.127C274.079 560.476 272.978 560.668 271.73 560.668Z" fill="#D1B8CA"/>
<path d="M318.656 534.596C319.883 536.858 320.715 539.469 320.862 542.304C320.998 545.129 320.289 548.139 318.782 550.705C317.275 553.271 315.09 555.362 312.66 556.858C310.224 558.344 307.567 559.34 304.864 559.871C303.501 560.141 302.18 560.305 300.76 560.378C299.313 560.459 297.838 560.361 296.38 560.106C293.461 559.616 290.653 558.442 288.273 556.819C285.871 555.211 283.878 553.187 282.239 550.985C281.431 549.869 280.704 548.712 280.057 547.499C279.403 546.262 278.851 545.045 278.4 543.465V543.461L286.29 541.528C286.57 543 286.71 544.087 286.762 545.374C286.811 546.618 286.801 547.873 286.658 549.149C286.388 551.694 285.707 554.358 284.27 556.879C282.868 559.417 280.522 561.619 277.904 562.951C276.593 563.633 275.247 564.07 273.887 564.388C272.474 564.713 270.996 564.832 269.534 564.762C266.598 564.633 263.773 563.63 261.441 562.088C259.099 560.55 257.187 558.515 255.816 556.204C253.072 551.593 252.789 545.597 255.313 541.266C255.9 540.259 257.19 539.916 258.197 540.504C258.812 540.864 259.179 541.486 259.235 542.147L259.249 542.311C259.553 546.192 260.644 549.328 262.574 551.852C263.507 553.103 264.637 554.187 265.916 554.886C267.196 555.589 268.545 555.945 269.859 555.966C270.52 555.973 271.181 555.9 271.835 555.722C272.534 555.512 273.216 555.278 273.792 554.977C274.957 554.362 275.81 553.523 276.533 552.369C277.236 551.205 277.732 549.695 278.016 548.031C278.148 547.199 278.243 546.328 278.278 545.447C278.316 544.608 278.309 543.57 278.271 542.94L278.225 542.231C278.089 540.007 279.778 538.095 281.997 537.955C283.973 537.833 285.7 539.151 286.161 541.004C286.434 541.654 286.92 542.549 287.402 543.36C287.906 544.182 288.479 544.982 289.091 545.73C290.307 547.237 291.695 548.541 293.178 549.558C294.67 550.562 296.264 551.261 297.953 551.621C298.799 551.806 299.669 551.876 300.564 551.894C301.484 551.904 302.501 551.845 303.445 551.715C307.256 551.191 310.871 549.614 313.024 546.901C315.223 544.262 315.849 540.287 314.856 536.06L314.852 536.043C314.594 534.938 315.279 533.833 316.384 533.575C317.303 533.358 318.226 533.802 318.656 534.596Z" fill="#000072"/>
<path d="M280.624 518.406C280.669 522.72 281.54 526.957 282.686 531.096C283.274 533.169 283.938 535.214 284.665 537.232C285.392 539.228 286.2 541.294 287.035 543.108C287.983 545.167 287.081 547.604 285.022 548.551C282.963 549.499 280.526 548.597 279.582 546.538C279.439 546.234 279.341 545.919 279.278 545.604L279.274 545.569C278.823 543.175 278.544 540.972 278.292 538.672C278.054 536.393 277.89 534.113 277.813 531.83C277.684 527.268 277.872 522.646 278.925 518.193C279.033 517.731 279.498 517.445 279.96 517.553C280.355 517.647 280.62 517.993 280.624 518.381V518.406Z" fill="#000072"/>
<path d="M307.696 515.62C307.263 520.675 298.719 527.072 290.231 532.229C280.047 538.417 266.766 537.274 257.785 529.439C250.303 522.909 242.976 515.151 243.409 510.096C244.287 499.919 258.949 497.976 276.701 499.503C294.454 501.027 308.57 505.446 307.696 515.62Z" fill="#000072"/>
<path d="M271.314 513.746C268.472 513.746 265.549 513.106 263.252 511.89C260.162 510.257 257.117 508.341 257.218 507.166C257.362 505.499 260.316 504.887 264.546 504.887C266.308 504.887 268.293 504.992 270.391 505.174C277.519 505.785 283.232 507.02 283.029 509.383C282.928 510.557 279.599 511.928 276.278 513.012C274.764 513.505 273.055 513.746 271.314 513.746Z" fill="#8989BD"/>
<path d="M244.43 421.435C233.26 419.537 222.846 432.038 221.164 449.357C219.483 466.676 227.178 482.254 238.347 484.153C249.517 486.051 259.931 473.549 261.613 456.23C263.294 438.911 255.6 423.333 244.43 421.435Z" fill="#000072"/>
<path d="M243.063 426.784C238.843 428.413 236.984 435.297 238.906 442.163C240.829 449.025 245.804 453.269 250.023 451.644C254.24 450.015 256.099 443.131 254.177 436.265C252.254 429.402 247.279 425.155 243.063 426.784Z" fill="white"/>
<path d="M244.923 427.389C244.399 427.389 243.892 427.483 243.402 427.668C239.7 429.098 238.06 435.618 239.819 441.904C240.931 445.872 243.231 449.148 245.825 450.445C247.153 451.112 248.482 451.221 249.681 450.756C253.383 449.329 255.023 442.809 253.264 436.52C252.153 432.552 249.852 429.28 247.258 427.98C246.472 427.588 245.685 427.389 244.923 427.389ZM248.157 452.941C247.108 452.941 246.035 452.675 244.975 452.144C241.871 450.588 239.263 446.952 237.994 442.418C235.91 434.982 237.987 427.724 242.72 425.9C244.43 425.239 246.293 425.375 248.108 426.284C251.212 427.84 253.82 431.475 255.093 436.01C257.173 443.446 255.096 450.7 250.363 452.528C249.649 452.804 248.908 452.941 248.157 452.941Z" fill="#000072"/>
<path d="M230.345 463.45C227.995 465.163 227.677 469.676 229.635 473.525C231.596 477.377 235.089 479.111 237.438 477.395C239.791 475.682 240.109 471.169 238.148 467.32C236.19 463.467 232.694 461.737 230.345 463.45Z" fill="#B199C4"/>
<path d="M230.904 464.215C228.95 465.641 228.758 469.707 230.481 473.095C231.54 475.175 233.11 476.643 234.683 477.021C235.512 477.22 236.253 477.087 236.882 476.629C238.833 475.206 239.029 471.141 237.302 467.749C236.246 465.669 234.673 464.201 233.1 463.827C232.275 463.628 231.533 463.757 230.904 464.215ZM235.414 479.007C235.033 479.007 234.641 478.961 234.243 478.867C232.135 478.36 230.097 476.524 228.789 473.955C226.597 469.644 227.034 464.691 229.785 462.684C230.869 461.894 232.17 461.653 233.544 461.981C235.648 462.485 237.686 464.32 238.994 466.89C241.189 471.204 240.752 476.154 237.997 478.164C237.232 478.723 236.351 479.007 235.414 479.007Z" fill="#000072"/>
<path d="M365.324 426.064C352.354 423.861 340.258 438.376 338.307 458.489C336.356 478.601 345.288 496.689 358.258 498.895C371.228 501.101 383.324 486.582 385.275 466.47C387.229 446.358 378.294 428.27 365.324 426.064Z" fill="#000072"/>
<path d="M363.873 432.772C359.146 434.597 357.059 442.32 359.213 450.015C361.37 457.713 366.949 462.474 371.676 460.646C376.406 458.821 378.493 451.102 376.336 443.404C374.182 435.709 368.603 430.948 363.873 432.772Z" fill="white"/>
<path d="M365.96 433.335C365.359 433.335 364.775 433.444 364.215 433.657C359.936 435.311 358.105 442.533 360.125 449.759C361.401 454.308 363.939 457.915 366.921 459.408C368.439 460.167 369.963 460.293 371.337 459.761C375.612 458.111 377.448 450.889 375.423 443.662C374.151 439.114 371.609 435.506 368.631 434.01C367.732 433.563 366.83 433.335 365.96 433.335ZM369.585 461.985C368.428 461.985 367.239 461.691 366.068 461.104C362.621 459.377 359.716 455.325 358.3 450.273C355.982 441.991 358.279 433.916 363.534 431.888C365.415 431.161 367.474 431.308 369.48 432.315C372.931 434.045 375.836 438.093 377.252 443.148C379.57 451.43 377.269 459.506 372.018 461.53C371.232 461.834 370.417 461.985 369.585 461.985Z" fill="#000072"/>
<path d="M349.207 475.325C346.638 477.199 346.288 482.135 348.431 486.345C350.574 490.557 354.395 492.452 356.965 490.578C359.538 488.704 359.884 483.768 357.741 479.559C355.598 475.346 351.777 473.451 349.207 475.325Z" fill="#B199C4"/>
<path d="M351.427 475.549C350.819 475.549 350.26 475.731 349.767 476.091C347.596 477.674 347.372 482.17 349.277 485.914C350.445 488.211 352.186 489.833 353.93 490.253C354.86 490.473 355.699 490.326 356.405 489.812C358.576 488.229 358.8 483.733 356.895 479.989C355.727 477.692 353.986 476.07 352.242 475.65C351.959 475.584 351.689 475.549 351.427 475.549ZM354.752 492.253C354.339 492.253 353.916 492.2 353.49 492.099C351.21 491.55 349.004 489.561 347.585 486.774C345.204 482.093 345.673 476.727 348.648 474.56C349.812 473.714 351.203 473.451 352.686 473.804C354.962 474.35 357.168 476.343 358.587 479.129C360.968 483.81 360.503 489.173 357.524 491.344C356.699 491.945 355.759 492.253 354.752 492.253Z" fill="#000072"/>
<path d="M557.468 456.814C555.598 456.814 553.738 456.538 551.938 455.933C542.46 452.755 537.692 441.502 538.636 431.549C539.58 421.599 544.869 412.657 550.025 404.095C550.337 403.578 550.634 403.081 550.924 402.599C551.267 403.365 551.609 404.151 551.959 404.959L564.478 443.841L567.523 454.315C564.362 455.881 560.901 456.814 557.468 456.814Z" fill="#FDE1BD"/>
<path d="M577.025 446.788L575.214 440.554L562.565 401.26C562.509 401.089 562.447 400.921 562.377 400.753C561.405 398.502 560.464 396.411 559.527 394.425C562.454 391.248 565.201 387.895 567.739 384.388C569.725 381.644 571.557 378.791 573.284 375.883C573.871 375.614 574.483 375.369 575.116 375.142C576.742 374.561 579.584 373.551 582.915 373.551C584.587 373.551 586.376 373.803 588.205 374.495C596.413 377.599 598.899 387.108 599.486 389.363C601.168 395.799 600.084 400.998 597.756 408.511C594.98 417.46 590.544 425.794 585.838 433.895C583.223 438.394 580.458 442.911 577.025 446.788Z" fill="#C8DDED"/>
<path d="M567.523 454.315L564.478 443.841L551.959 404.959C551.609 404.151 551.266 403.365 550.924 402.599C550.941 402.571 550.959 402.539 550.976 402.512C553.353 400.529 555.633 398.421 557.828 396.226C558.402 395.631 558.968 395.03 559.527 394.425C560.464 396.411 561.405 398.502 562.377 400.753C562.447 400.921 562.509 401.089 562.565 401.26L575.214 440.555L577.025 446.788C575.626 448.364 574.116 449.84 572.459 451.165C570.945 452.374 569.278 453.441 567.523 454.315Z" fill="#B1B1D3"/>
<path d="M550.976 402.512C555.074 395.677 557.017 392.226 557.933 390.968C562.842 384.193 566.845 378.806 573.284 375.883C571.557 378.791 569.725 381.644 567.74 384.388C565.201 387.895 562.454 391.248 559.528 394.425C558.968 395.03 558.402 395.631 557.829 396.226C555.633 398.421 553.354 400.529 550.976 402.512Z" fill="#B1B1D3"/>
<path d="M523.516 515.399C516.258 515.399 508.948 510.341 506.847 503.247C503.582 492.204 512.979 483.002 518.16 480.891C518.761 480.646 520.264 480.104 522.114 479.639C523.869 479.195 526.508 478.548 529.651 478.548C530.382 478.548 531.14 478.583 531.92 478.664C534.745 478.954 537.258 479.321 539.744 481.031C543.205 483.411 544.799 487.893 544.558 492.088C544.317 496.283 542.485 500.234 540.258 503.796C537.419 508.341 533.668 512.606 528.651 514.487C526.991 515.109 525.257 515.399 523.516 515.399Z" fill="#FDE1BD"/>
<path d="M658.802 112.884C659.057 112.767 659.312 112.662 659.575 112.568C659.257 112.686 658.994 112.799 658.802 112.884Z" fill="#AC95A7"/>
<path d="M657.442 113.646L657.449 113.64C657.855 113.307 658.169 113.166 658.792 112.889L658.802 112.884C658.33 113.101 657.876 113.356 657.442 113.646Z" fill="#AC95A7"/>
</svg>
